<svg id="_0106_dog_walking" xmlns="http://www.w3.org/2000/svg" xmlns:xlink="http://www.w3.org/1999/xlink" viewBox="0 0 500 500" data-imageid="dog-walking-64" imageName="Dog Walking" class="illustrations_image" style="width: 151px;"><defs><style>.cls-1_dog-walking-64{fill:url(#linear-gradient);}.cls-1_dog-walking-64,.cls-2_dog-walking-64,.cls-3_dog-walking-64,.cls-4_dog-walking-64,.cls-5_dog-walking-64,.cls-6_dog-walking-64,.cls-7_dog-walking-64,.cls-8_dog-walking-64,.cls-9_dog-walking-64,.cls-10_dog-walking-64,.cls-11_dog-walking-64,.cls-12_dog-walking-64,.cls-13_dog-walking-64,.cls-14_dog-walking-64,.cls-15_dog-walking-64,.cls-16_dog-walking-64{stroke-width:0px;}.cls-2_dog-walking-64{isolation:isolate;opacity:.18;}.cls-2_dog-walking-64,.cls-16_dog-walking-64{fill:#68e1fd;}.cls-3_dog-walking-64{fill:url(#linear-gradient-11-dog-walking-64);}.cls-4_dog-walking-64{fill:url(#linear-gradient-10-dog-walking-64);}.cls-5_dog-walking-64{fill:url(#linear-gradient-4-dog-walking-64);}.cls-6_dog-walking-64{fill:url(#linear-gradient-2-dog-walking-64);}.cls-7_dog-walking-64{fill:url(#linear-gradient-3-dog-walking-64);}.cls-8_dog-walking-64{fill:url(#linear-gradient-8-dog-walking-64);}.cls-9_dog-walking-64{fill:url(#linear-gradient-9-dog-walking-64);}.cls-10_dog-walking-64{fill:url(#linear-gradient-7-dog-walking-64);}.cls-11_dog-walking-64{fill:url(#linear-gradient-5-dog-walking-64);}.cls-12_dog-walking-64{fill:url(#linear-gradient-6-dog-walking-64);}.cls-13_dog-walking-64{fill:#3e3e54;}.cls-14_dog-walking-64{fill:#fff;}.cls-15_dog-walking-64{fill:#ffb4a3;}</style><linearGradient id="linear-gradient-dog-walking-64" x1="929.29" y1="1384.94" x2="912.59" y2="1402.83" gradientTransform="translate(-526.35 1782.8) scale(1 -1)" gradientUnits="userSpaceOnUse"><stop offset="0" stop-color="#000" stop-opacity="0"/><stop offset=".99" stop-color="#000"/></linearGradient><linearGradient id="linear-gradient-2-dog-walking-64" x1="821.84" y1="1388.86" x2="835.74" y2="1401.38" xlink:href="#linear-gradient-dog-walking-64"/><linearGradient id="linear-gradient-3-dog-walking-64" x1="882.78" y1="1422.73" x2="923.12" y2="1422.73" xlink:href="#linear-gradient-dog-walking-64"/><linearGradient id="linear-gradient-4-dog-walking-64" x1="930.44" y1="1442.64" x2="921.38" y2="1432.9" xlink:href="#linear-gradient-dog-walking-64"/><linearGradient id="linear-gradient-5-dog-walking-64" x1="918.75" y1="1452.99" x2="908.21" y2="1446.33" xlink:href="#linear-gradient-dog-walking-64"/><linearGradient id="linear-gradient-6-dog-walking-64" x1="908.5" y1="1462.5" x2="900.97" y2="1446.1" xlink:href="#linear-gradient-dog-walking-64"/><linearGradient id="linear-gradient-7-dog-walking-64" x1="854.98" y1="1444.07" x2="852.86" y2="1440.4" gradientTransform="translate(-471 1784.53) scale(1 -1)" xlink:href="#linear-gradient-dog-walking-64"/><linearGradient id="linear-gradient-8-dog-walking-64" x1="661.99" y1="1620.37" x2="754.19" y2="1514.95" xlink:href="#linear-gradient-dog-walking-64"/><linearGradient id="linear-gradient-9-dog-walking-64" x1="653.11" y1="1476.83" x2="750.3" y2="1588.32" xlink:href="#linear-gradient-dog-walking-64"/><linearGradient id="linear-gradient-10-dog-walking-64" x1="703.59" y1="1489.75" x2="704" y2="1489.75" xlink:href="#linear-gradient-dog-walking-64"/><linearGradient id="linear-gradient-11-dog-walking-64" x1="744.34" y1="1527.73" x2="663.56" y2="1499.11" xlink:href="#linear-gradient-dog-walking-64"/></defs><path id="background_dog-walking-64" class="cls-2_dog-walking-64 targetColor" d="M425.62,430.17c-17.94,9.05-38.85,9.41-58.94,9.58l-62.36.51c-7.08-.11-14.15.29-21.18,1.2-7.64,1.16-11.46.25-19.06-1.16-15.79-2.95-31.94-3.18-47.95-3.5l-77.73-1.47c-26.25-.49-53.55-1.24-76.87-13.3-5.2-2.69-10.25-6.03-13.64-10.81-2.06-3.11-3.65-6.5-4.7-10.08-6.23-19.47-5.33-40.52,2.54-59.39,8.08-19.17,22.89-34.94,29.71-54.65,7.36-21.37-6.43-46.24-12.8-66.7-8.28-26.62-13.12-54.72-9.9-82.4,3.22-27.69,15.11-54.98,36.1-73.31,31.39-27.38,77.63-30.72,118.27-22.02,14.02,3.01,27.92,7.33,40.23,14.72,31.84,19.17,48.53,55.96,76.58,80.33,33.28,28.93,80.99,39.1,109.95,72.34,20.03,23,28.19,54,32.25,84.19,3.5,26.12,4.24,54.34-7.59,78.6-10.57,21.73-6.85,44.17-32.93,57.33Z" style="fill: rgb(253, 229, 104);"/><path id="shadow_dog-walking-64" class="cls-2_dog-walking-64 targetColor" d="M77.41,402.29c.91,6.23,8.47,8.68,14.65,9.71,64.25,10.67,129.79,9.38,194.89,7.98,25.66-.56,51.39-1.2,76.87-4.37,17.07-2.12,51.78-4.07,64.41-16.7-8.98-5.43-26.12-2.45-36.46-2.51-25.55-.15-51.1-.25-76.64-.13-50.38.25-100.75,1.14-151.12,2.69-28.87.9-57.74,2-86.61,3.32Z" style="fill: rgb(253, 229, 104);"/><g id="rope_dog-walking-64"><path class="cls-13_dog-walking-64" d="M360.01,348.46c-.2,0-.39-.05-.57-.17-.84-.54-84.18-54.58-107.42-108.63-.17-.38-1.88-3.72-7.41-1.62-.55.21-1.16-.07-1.37-.61-.21-.55.07-1.16.61-1.37,7.56-2.87,10.08,2.7,10.1,2.76,22.98,53.46,105.79,107.16,106.62,107.69.49.32.63.97.32,1.46-.2.31-.54.49-.89.49Z"/><path class="cls-13_dog-walking-64" d="M227.09,248.83c-.11,0-.22-.02-.33-.05-.56-.18-.86-.78-.67-1.34.67-2.03,3.94-4.29,4.59-4.72.49-.32,1.14-.19,1.47.29.32.49.19,1.14-.29,1.47-1.36.91-3.42,2.63-3.75,3.62-.15.44-.56.73-1,.73Z"/></g><g id="dog_dog-walking-64"><path class="cls-13_dog-walking-64" d="M398.67,383.4c1.21,1.02,2.22,2.27,2.95,3.67.63,1.67.85,3.46.66,5.23-.15,2.74-.51,5.46-1.06,8.14-.16.83-.55,1.84-1.4,1.88-.49-.03-.95-.27-1.26-.65-1.65-1.64-2.58-3.88-2.57-6.21.12-.88.06-1.78-.18-2.64-.61-1.07-1.6-1.87-2.77-2.24l-7.94-3.65c-2.19-1.01-4.57-2.22-5.39-4.48-1.27-3.52,2.98-9.53,6.81-9.53s9.5,7.91,12.15,10.47Z"/><path class="cls-13_dog-walking-64" d="M299.36,389.58c-1.16,1.21-2.44,2.31-3.81,3.27-1.38.97-2.46,2.32-3.1,3.88-.62,1.61-.09,3.44,1.29,4.48,2.06,1.27,4.65-.36,6.5-1.92l12.17-10.15c1.26-.89,2.28-2.08,2.95-3.46.76-1.98.08-4.24-.8-6.13-.68-1.64-1.68-3.12-2.94-4.35-8.61-7.78-9.01,10.52-12.25,14.39Z"/><path class="cls-1_dog-walking-64" d="M398.67,383.4c1.21,1.02,2.22,2.27,2.95,3.67.63,1.67.85,3.46.66,5.23-.15,2.74-.51,5.46-1.06,8.14-.16.83-.55,1.84-1.4,1.88-.49-.03-.95-.27-1.26-.65-1.65-1.64-2.58-3.88-2.57-6.21.12-.88.06-1.78-.18-2.64-.61-1.07-1.6-1.87-2.77-2.24l-7.94-3.65c-2.19-1.01-4.57-2.22-5.39-4.48-1.27-3.52,2.98-9.53,6.81-9.53s9.5,7.91,12.15,10.47Z"/><path class="cls-6_dog-walking-64" d="M299.36,389.58c-1.16,1.21-2.44,2.31-3.81,3.27-1.38.97-2.46,2.32-3.1,3.88-.62,1.61-.09,3.44,1.29,4.48,2.06,1.27,4.65-.36,6.5-1.92l12.17-10.15c1.26-.89,2.28-2.08,2.95-3.46.76-1.98.08-4.24-.8-6.13-.68-1.64-1.68-3.12-2.94-4.35-8.61-7.78-9.01,10.52-12.25,14.39Z"/><path class="cls-13_dog-walking-64" d="M400.88,350.5c-.46,1.69-1.9,2.91-3.25,4.01-1.39,1.28-3,2.3-4.76,3-.96.15-1.85.58-2.57,1.24-.3.44-.5.95-.56,1.48-1.06,5.96,1.78,12.4-.48,18-1.11,2.39-3.73,3.7-6.24,4.53-5.99,2.02-12.4,2.46-18.73,2.7-16.25.62-32.53.09-48.7-1.6-1.48-.08-2.94-.39-4.33-.92-3.55-1.59-5.19-5.73-5.69-9.58-.19-1.47-.32-3.09-1.33-4.17-2.63-2.78-6.09,0-8.8.77-4.1,1.01-8.44.48-12.18-1.49-4.29-2.31-7.41-7.03-7.05-11.9,0-.45.12-.89.35-1.28.57-.66,1.49-.89,2.3-.57.78.33,1.51.77,2.18,1.29,4.64,3.09,10.74,2.32,16.24,1.44,9.98-1.61,19.48-3.8,29.65-4.31l23.36-1.18c5.37-.26,13.34.86,16.43-4.82,1.31-2.4-.74-4.97-.16-7.64.54-2.46,1.37-4.86,2.48-7.13.97-2,1.88-4.34,3.75-5.66.38-.26,3.64-2.44,5.65-.13v.23c-.11.76-1,3.03-1.06,4.24-.1.85-.94,6.78.7,5.6.11-.08.2-.19.28-.31.07-.13.14-.26.19-.4.46-1.06.76-2.24,1.23-3.34,1.16-2.71,3.2-4.95,5.8-6.35.41-.27.9-.4,1.39-.36.51.15.91.55,1.06,1.06.16.5.19,1.04.08,1.56-.26,1.2-.62,2.39-1.06,3.54-.23.71-.4,1.45-.51,2.19-.18,1.16.05,2.35.67,3.36.19.32.41.63.66.91.89,1.01,1.97,1.84,3.18,2.45,2.23,1.15,4.71,1.83,6.78,3.25s3.76,3.89,3.07,6.3Z"/><path class="cls-13_dog-walking-64" d="M370.63,398.66c-1.96,2.37-4,4.18-5.96,6.56-.67.79-4.01,1.56-4.95,2-.94.52-2.1.37-2.88-.37-.6-.82-.64-1.91-.11-2.77.53-.83,1.21-1.57,1.99-2.17,3.01-2.67,5.73-6.26,5.48-10.27-.16-2.57-1.52-4.93-1.8-7.5-.7-6.21,12.94-15.93,17.62-8.29,4.68,7.64-5,17.43-9.39,22.81Z"/><path class="cls-13_dog-walking-64" d="M333.05,395.59c2.16,2.77,4.78,5.16,7.74,7.06.57.31,1.01.81,1.25,1.41.16.89-.32,1.77-1.15,2.12-.81.31-1.68.43-2.54.36-2.12,0-4.44-.1-6.28-1.22-.77-.5-1.48-1.09-2.12-1.76-5.83-5.76-11.51-11.69-17.02-17.78-1.4-1.55-2.86-3.25-3.06-5.29-.3-3.18,2.6-5.9,5.72-6.45s6.27.56,9.11,1.95c4.38,2.12,3.32,4.55,4.07,8.47.61,3.98,2.08,7.77,4.3,11.13Z"/><path class="cls-16_dog-walking-64 targetColor" d="M397.31,372.35c-.14.19-.33.34-.54.44-1.04.27-2.14.1-3.05-.48-11.48-5.87-21.3-14.59-32.82-20.4-1.69-.86-3.58-1.81-4.24-3.59-.1-.26-.18-.53-.23-.8h0c-.65-3.18,3.53-2.75,5.4-1.65,3.56,2.12,7.01,4.38,10.51,6.56l20.12,12.59c2.18,1.36,4.55,2.99,5.09,5.51.18.61.09,1.28-.24,1.82Z" style="fill: rgb(253, 229, 104);"/><path class="cls-7_dog-walking-64" d="M396.77,372.8c-1.04.27-2.14.1-3.05-.48-11.48-5.87-21.3-14.59-32.82-20.4-1.69-.86-3.58-1.81-4.24-3.59-.1-.26-.18-.53-.23-.8,1.21-.64,3.37-.2,4.57.51,3.55,2.12,7.01,4.38,10.5,6.56l20.12,12.59c2.19,1.37,4.56,2.99,5.1,5.51.03.03.03.07.04.11Z"/><path class="cls-13_dog-walking-64" d="M401.54,343.11c.48-.05.96.06,1.37.32.32.3.5.73.49,1.16,0,1.13-.46,2.21-1.27,3.01-.38.45-.92.75-1.51.83-.79-.06-1.51-.44-2-1.06-.65-.63-1.26-1.29-1.84-1.99-.74-.9-1.44-2.12.16-2.31,1.54-.07,3.08-.06,4.62.04Z"/><path class="cls-5_dog-walking-64" d="M401.54,343.11c.48-.05.96.06,1.37.32.32.3.5.73.49,1.16,0,1.13-.46,2.21-1.27,3.01-.38.45-.92.75-1.51.83-.79-.06-1.51-.44-2-1.06-.65-.63-1.26-1.29-1.84-1.99-.74-.9-1.44-2.12.16-2.31,1.54-.07,3.08-.06,4.62.04Z"/><path class="cls-11_dog-walking-64" d="M387.9,338.46c-.85-.82-1.95-1.32-3.12-1.43-1.19-.16-2.39-.19-3.59-.11-.2,0-.44,0-.52-.21-.05-.12-.05-.24,0-.36.55-1.7,1.26-3.35,2.12-4.91.87-1.57,2.17-2.86,3.75-3.72.21-.14.47-.18.72-.13.39.15.44.68.37,1.06-.2.86-.44,1.71-.73,2.55-.26.96-.37,1.96-.32,2.95-.18,1.16.05,2.35.67,3.36.19.33.41.65.66.94Z"/><path class="cls-12_dog-walking-64" d="M378.04,336.64c.11-.08.2-.19.28-.31v.3c0,.23-.08.56-.34.66s-.31-.13-.52-.17c-.65,0-1.28.26-1.76.71-1.27.86-2.64,1.57-4.08,2.12-.58-2.91.42-5.91,1.69-8.59.47-1.09,1.1-2.1,1.88-3,.79-.9,1.9-1.46,3.1-1.55h.17c-.11.76-1,3.03-1.06,4.24-.17.84-1.02,6.77.62,5.59Z"/><circle class="cls-10_dog-walking-64" cx="381.8" cy="344.23" r=".94"/></g><g id="character_dog-walking-64"><path class="cls-16_dog-walking-64 targetColor" d="M240.14,410.42c-.85.59-1.86.9-2.89.91-7.48.93-15.01,1.45-22.55,1.57-1.04.07-2.07-.08-3.05-.43-1.3-.37-2.06-1.72-1.69-3.02.22-.8.84-1.43,1.63-1.67.96-.38,1.99-.56,3.03-.55,8.11-.36,16.55-.67,24.65.2.9,0,1.63.74,1.62,1.64,0,.55-.28,1.06-.74,1.35Z" style="fill: rgb(253, 229, 104);"/><path class="cls-16_dog-walking-64 targetColor" d="M115.19,408.53c.73.96,1.6,1.8,2.58,2.5,1.61.85,3.39,1.32,5.21,1.36,3.53.35,7.08.63,10.64.83.65.11,1.32,0,1.91-.32.8-.8.84-2.08.08-2.92-.78-.77-1.75-1.33-2.81-1.63-5.8-2.27-11.07-5.71-15.48-10.11-1.72-1.73-7.58-8.35-9.33-2.76-1.34,4.26,4.72,10.16,7.19,13.06Z" style="fill: rgb(253, 229, 104);"/><path class="cls-15_dog-walking-64" d="M168.06,295.87c-10.68,31.16-25.71,60.62-40.69,89.99-1.06,2.04-2.19,4.24-4.24,5.29s-5.08.6-5.81-1.57c-.21-.89-.21-1.82,0-2.71,2.12-13.36,6.63-26.3,7.9-39.77.46-4.86.51-9.9,2.47-14.38,2.48-5.66,7.71-9.76,10.14-15.45,1.59-3.72,1.86-7.85,2.35-11.87.66-5.53,1.77-11,3.31-16.36,9.95.66,19.75,2.84,29.04,6.47"/><path class="cls-15_dog-walking-64" d="M205.72,289.77c7.06,32.16,9.53,65.14,11.97,97.99.17,2.29.31,4.73-.82,6.72s-4.03,3.18-5.78,1.68c-.65-.64-1.14-1.43-1.43-2.3-5.17-12.49-8-25.92-13.91-38.12-2.12-4.39-4.71-8.72-5.37-13.57-.83-6.12,1.51-12.35.64-18.45-.57-4.01-2.49-7.69-4.16-11.37-2.3-5.08-4.19-10.33-5.66-15.7,8.85-4.59,18.35-7.8,28.17-9.53"/><path class="cls-15_dog-walking-64" d="M203.95,193.34c3.24,6.96,6.51,13.96,11.01,20.19,4.5,6.23,10.35,11.65,17.5,14.49,6.49,2.56,13.99,2.94,19.53,7.18.57.38,1.02.91,1.31,1.54.21.84.11,1.73-.29,2.5-3.18,7.75-14.13,10.99-21.02,6.2-1.57-1.06-2.9-2.49-4.48-3.56-2.15-1.23-4.39-2.3-6.71-3.18-4.76-2.2-8.85-5.62-12.86-9s-7.97-6.82-9.53-11.65c-1.79-5.62-6.61-11.35-5.89-17.2.41-3.41,1.22-7.04.74-10.44-.35-2.51.38-9.2,1.94-11.33,2.14,3.59,6.91,10.41,8.73,14.25Z"/><path class="cls-15_dog-walking-64" d="M200.29,122.13c.27,2.43.06,4.9-.61,7.25-.7,2.36-2.26,4.38-4.36,5.65-2.49,1.27-5.4,1.45-8.03.49-.54-.26-1.15-.33-1.74-.18-.4.21-.72.55-.9.96-1.24,2.26-1.25,4.97-2.12,7.41-.25.69.42,6.59-.16,7.03s-2.12-4.68-2.66-4.56c-1.65.34-3.36.34-5.01,0-.58-.09-1.14-.31-1.62-.66-.4-.31-6.26,3.75-6.51,3.3-3.27-5.74,3.24-17.32,3.04-23.94-.14-4.62-.77-9.68,1.86-13.47,1.82-2.6,4.86-4.06,7.86-5.08,2.65-.98,5.44-1.51,8.26-1.57,4.09,0,7.41,1.21,9.23,4.9,1.93,3.9,3.1,8.12,3.46,12.45Z"/><path class="cls-13_dog-walking-64" d="M196,101.23c1.4,2.75,1.41,6.35-.59,8.72-.85.93-1.87,1.69-3.01,2.23-2.34,1.22-4.88,2.01-7.51,2.31-.74,0-1.47.2-2.12.56-.55.46-.96,1.06-1.19,1.74-.77,1.93-1.24,3.96-1.39,6.03-.71.4-1.6-.17-2.06-.84s-.8-1.49-1.52-1.88c-1.25-.71-2.89.5-3.18,1.91-.09,1.45.4,2.88,1.36,3.97.88,1.21,1.98,2.58,1.58,4.02-.36.89-1,1.63-1.82,2.12l-4.67,3.53c-.71.84-1.96.95-2.8.24-.11-.09-.21-.2-.3-.31-2.18-1.68-4.14-3.62-5.85-5.77-2.66-3.81-3.95-8.42-3.64-13.06.43-7.55,4.25-14.5,10.39-18.92,8.36-5.91,22.97-7.25,28.33,3.41Z"/><path class="cls-13_dog-walking-64" d="M158.25,83.21c-4.48-.61-8.88,1.62-11.03,5.6-.9,1.94-1.36,4.06-1.36,6.2-.06,1.29.06,2.59.37,3.84.75,2.32,2.12,4.38,3.97,5.97.94.92,2.01,1.68,3.18,2.28,2.59,1.04,5.43,1.26,8.14.62,1.29-.19,2.54-.54,3.74-1.06,2.57-1.23,4.44-3.57,5.07-6.35.18-.77.18-1.58,0-2.35-.17-.59-.41-1.16-.71-1.69-1.42-2.75-1.95-5.97-3.83-8.47-1.82-2.46-4.52-4.11-7.54-4.59Z"/><path class="cls-16_dog-walking-64 targetColor" d="M152.9,222.09c-4.65-4.29-4.34-7.02-4.99-13.32-.6-5.86-.06-11.79,1.59-17.45,2.62-9-2.8-16.94-.31-26.02,1.52-5.54,10.83-34.67,33.96-16.94,3.18,2.42,4.33,6.69,6.75,9.86,2.77,3.61,6.45,6.52,8.8,10.42,3.18,5.55,3.41,12.31.62,18.07-1.36,2.83-3.41,4.99-4.61,7.91-1.37,3.7-1.97,7.64-1.77,11.58.08,5.34.4,10.67.93,15.99.35,3.45,2.52,7.96.25,11s-8.88,3.75-12.25,4.29c-8.47,1.37-17.87.52-24.71-5.15-3.04-2.51-5.51-6.51-4.29-10.26" style="fill: rgb(253, 229, 104);"/><path class="cls-8_dog-walking-64" d="M168.47,199.87c-.51,6.42.96,12.8,1.25,19.23.29,6.43-.66,13.15-1.6,19.67l-2.2,15.2c-.03.33-.13.65-.29.94-.67,1.06-2.27.4-3.18-.43-4.84-4.63-4.54-12.24-5.73-18.84-1.3-7.23-4.71-13.9-6.68-20.98-2.52-8.82-2.49-18.17.1-26.98,1.63-4.93,3.8-9.66,6.46-14.11,2.55-4.51,5.42-9.05,9.71-11.96,3.01-2.05,10.59-12.85,13.76-9.83,2.88,2.75-.56,16.39-1.68,19.4-3.46,9.47-9.11,18.41-9.92,28.69Z"/><path class="cls-14_dog-walking-64" d="M212.19,293.38c.3,2.54-1.37,4.89-3.86,5.44-.53.23-1.06.44-1.64.66-6.59,2.49-15.65,3.82-22.29,4.47-1.06.21-2.16.06-3.11-.43-.58-.46-1.05-1.05-1.37-1.72-.8-1.4-1.51-4.93-2.26-7.94,0-.02,0-.04,0-.06-.14-.56-.28-1.06-.41-1.6h0c-.21-.88-.52-1.72-.92-2.53.06.38.06.76,0,1.13-.22,3.01-1.98,10.04-3.08,10.82-1.35.85-2.89,1.36-4.49,1.48-8.52,1.28-17.23-.18-24.88-4.16-1.11-.6-2.19-1.25-3.24-1.96-.83-.48-1.52-1.18-1.97-2.03-.05-.15-.07-.31-.06-.47-.07-2.12,1.12-9.44,1.25-10.34,2.12-14.82,4.24-29.65,7.8-44.12.66-2.93,1.51-5.81,2.56-8.62h0c.14-.35.28-.7.42-1.06.49-1.42,1.35-2.68,2.51-3.64,1.7-1.22,3.98-1.13,6.07-1l20.5,1.3c1.25.06,2.51.03,3.76-.1,1.96-.23,3.93-.35,5.91-.35,2.63.1,4.24,1.81,5.91,3.89,3.49,4.24,5.37,9.63,6.98,14.82,4.29,13.69,10.37,33.75,9.92,48.11Z"/><path class="cls-15_dog-walking-64" d="M123.55,232.9c-1.57,2.65-3.39,5.13-4.74,7.89-2.52,5.16-3.28,10.99-2.17,16.62.57,2.87,1.75,5.8,4.12,7.52s6.15,1.68,7.87-.69c2.42-3.36-.3-9.06,2.87-11.72,0,1.06,1.81,1.34,2.53.5.6-.94.79-2.09.55-3.18-.33-3.39-.12-6.69-.44-10.08,2.95-4.48,5.94-9.02,7.63-14.1,2.12-6.35,2.12-13.28,5.23-19.16,2.26-4.32,5.93-7.68,9.32-11.18,8.31-8.64,15.11-18.61,20.12-29.5,1.86-4.07,3.5-8.34,3.7-12.81.17-3.97-6.19-6.45-10.17-6.3s-7.65,2.34-10.42,5.21c-2.65,2.98-4.9,6.28-6.71,9.83-5.79,10.26-11.59,20.52-17.38,30.78-1.15,2.1-7.71,33.34-11.88,40.38Z"/><path class="cls-13_dog-walking-64" d="M209.49,408.51c.1.56.37,1.08.77,1.47.52.32,1.13.45,1.74.39,8.93,0,17.84-.37,26.73-1.11,1.06-.08,2.36-.44,2.46-1.48,0-.37-.09-.74-.26-1.06-1.84-3.85-5.76-6.21-9.53-8.3-3.53-1.98-7.12-3.91-10.77-5.78-.63-.41-1.37-.63-2.12-.62-.63.12-1.22.37-1.75.74-2.45,1.37-6.2,1.06-7.53,3.81-1.5,3.28-.61,8.61.25,11.94Z"/><path class="cls-13_dog-walking-64" d="M112.14,389.93c-1.06,1.12-2.12,2.38-2.18,3.91.08,1.27.54,2.48,1.31,3.48,1.85,2.87,3.86,5.63,6.03,8.27,1.03,1.43,2.37,2.61,3.93,3.45,1.08.44,2.22.72,3.39.83,2.85.37,5.72.61,8.59.7.86.11,1.73-.07,2.47-.51,1.19-.93.86-2.82.17-4.16-.85-1.66-2.06-3.11-3.54-4.24-.69-.45-1.33-.97-1.9-1.57-.62-.87-1.06-1.86-1.28-2.9-.79-2.61-1.74-5.16-2.85-7.64-.15-.65-.77-1.08-1.43-1-2.69-.11-4.75-1.15-7.25-1.88-2.23-.64-4.07,1.75-5.46,3.26Z"/><path class="cls-9_dog-walking-64" d="M159.71,269.84c3.64,7.16,9.34,12.85,16.62,20.94-.22,3.01-1.98,10.04-3.08,10.82-1.35.85-2.89,1.36-4.49,1.48-8.52,1.28-17.23-.18-24.88-4.16l-2.12-1.94c-.67-.52-1.19-1.2-1.54-1.97-.08-.24-.75-.41-1.63-.55-.07-2.12,1.12-9.44,1.25-10.34,2.12-14.82,4.24-29.65,7.8-44.12.66-2.93,1.51-5.81,2.56-8.62h0c.76-1.68,1.74-3.25,2.92-4.67-.12.54-5.3,19.68,6.57,43.12Z"/><path class="cls-4_dog-walking-64" d="M177.65,293.85c-.14-.56-.28-1.06-.41-1.6.2.52.33,1.05.41,1.6Z"/><path class="cls-3_dog-walking-64" d="M212.19,293.38c.3,2.54-1.37,4.89-3.86,5.44-.53.23-1.06.44-1.64.66l-.13-.12c-.79-.99-1.32-2.15-1.55-3.4-4.48-17.82-10.12-35.34-16.87-52.43-1.51-3.86-7.82-12.2-4.69-16.63,1.96-.23,3.93-.35,5.91-.35,2.63.1,4.24,1.81,5.91,3.89,3.49,4.24,5.37,9.63,6.98,14.82,4.31,13.7,10.39,33.76,9.94,48.12Z"/></g></svg>